Coordinates
version=1
nRows=10
nColumns=38
inDegrees=no

Units are S.I. units (second, meters, Newtons, ...)
If the header above contains a line with 'inDegrees', this indicates whether rotational values are in degrees (yes) or radians (no).

endheader
time	pelvis_tilt	pelvis_list	pelvis_rotation	pelvis_tx	pelvis_ty	pelvis_tz	hip_flexion_r	hip_adduction_r	hip_rotation_r	knee_angle_r	ankle_angle_r	subtalar_angle_r	mtp_angle_r	hip_flexion_l	hip_adduction_l	hip_rotation_l	knee_angle_l	ankle_angle_l	subtalar_angle_l	mtp_angle_l	lumbar_extension	lumbar_bending	lumbar_rotation	arm_flex_r	arm_add_r	arm_rot_r	elbow_flex_r	pro_sup_r	wrist_flex_r	wrist_dev_r	arm_flex_l	arm_add_l	arm_rot_l	elbow_flex_l	pro_sup_l	wrist_flex_l	wrist_dev_l
0.191667	-0.146217	-0.00216678	-0.154461	1.17678	0.995746	-0.309678	0.699215	0.0671745	-0.222584	-0.243627	-0.211806	0.0343465	0.000259486	-0.0461755	0.11841	-0.118142	-1.42298	-0.417456	0.0592267	0.000553047	-0.0707221	0.0787796	-0.12993	-0.896178	-0.0738769	-0.428203	1.39916	1.19225	0.0229923	-0.00384382	-0.4118	-0.290824	0.12723	2.39859	1.63951	0.0442164	-0.00503466
0.2	-0.123271	-0.0130744	-0.166604	1.17664	0.992226	-0.308575	0.668335	0.0831543	-0.167692	-0.29772	-0.202252	0.0343465	0.000259486	-0.0424626	0.0937356	-0.159898	-1.54019	-0.38417	0.0592267	0.000553047	-0.100004	0.0882415	-0.103941	-0.877994	-0.0835014	-0.411438	1.39595	1.20896	0.0229923	-0.00384382	-0.44023	-0.277795	0.113771	2.3258	1.66473	0.0442164	-0.00503466
0.208333	-0.103408	-0.0223473	-0.176704	1.17604	0.987938	-0.3077	0.641565	0.0984946	-0.118557	-0.358501	-0.173927	0.0343465	0.000259486	-0.0306967	0.0722945	-0.19391	-1.65472	-0.350807	0.0592267	0.000553047	-0.126069	0.0959352	-0.0789833	-0.855343	-0.093526	-0.391754	1.39212	1.22437	0.0229923	-0.00384382	-0.466329	-0.265895	0.100806	2.25046	1.68722	0.0442164	-0.00503466
0.216667	-0.0866547	-0.0299496	-0.184749	1.17503	0.982866	-0.307012	0.618899	0.113119	-0.0753588	-0.425776	-0.127267	0.0343465	0.000259486	-0.0107827	0.0540825	-0.220215	-1.76648	-0.317481	0.0592267	0.000553047	-0.148886	0.10183	-0.0550664	-0.828233	-0.103914	-0.369184	1.38772	1.23848	0.0229923	-0.00384382	-0.490096	-0.255152	0.0883297	2.17267	1.70683	0.0442164	-0.00503466
0.225	-0.0730618	-0.035818	-0.190731	1.17358	0.977055	-0.306486	0.600206	0.126817	-0.0384973	-0.498789	-0.0637839	0.0343465	0.000259486	0.0175074	0.0390384	-0.238945	-1.87516	-0.284474	0.0592267	0.000553047	-0.16839	0.10586	-0.0321968	-0.796716	-0.114552	-0.343859	1.38293	1.25129	0.0229923	-0.00384382	-0.511552	-0.24563	0.0763289	2.09282	1.72313	0.0442164	-0.00503466
0.233333	-0.0626749	-0.0399145	-0.194664	1.17166	0.970661	-0.306103	0.585026	0.139255	-0.008409	-0.575864	0.0134721	0.0343465	0.000259486	0.0544607	0.0269527	-0.250397	-1.9801	-0.252184	0.0592267	0.000553047	-0.18452	0.107962	-0.0103408	-0.760942	-0.12524	-0.316102	1.37815	1.26285	0.0229923	-0.00384382	-0.530779	-0.23742	0.0647607	2.01166	1.73543	0.0442164	-0.00503466
0.241667	-0.0554695	-0.0422914	-0.19664	1.16926	0.963936	-0.305841	0.572379	0.150044	0.0147647	-0.654242	0.0999485	0.0343465	0.000259486	0.100255	0.0173845	-0.255111	-2.08019	-0.220998	0.0592267	0.000553047	-0.197287	0.108143	0.0106312	-0.721246	-0.13569	-0.286519	1.37409	1.2733	0.0229923	-0.00384382	-0.547981	-0.230605	0.0535268	1.93044	1.7431	0.0442164	-0.00503466
0.25	-0.05128	-0.0431239	-0.196868	1.16644	0.957195	-0.30567	0.56071	0.158815	0.0314673	-0.730266	0.190181	0.0343465	0.000259486	0.154769	0.00966627	-0.253901	-2.17384	-0.191175	0.0592267	0.000553047	-0.20682	0.106511	0.0309819	-0.678227	-0.145558	-0.256073	1.37184	1.28292	0.0229923	-0.00384382	-0.563546	-0.22521	0.0424473	1.85085	1.74585	0.0442164	-0.00503466
0.258333	-0.0497868	-0.0426836	-0.195696	1.16329	0.950791	-0.305547	0.548002	0.165238	0.0428149	-0.799854	0.278677	0.0343465	0.000259486	0.217438	0.00303287	-0.247851	-2.25909	-0.162793	0.0592267	0.000553047	-0.213364	0.103244	0.0510933	-0.632818	-0.154475	-0.226086	1.37282	1.29219	0.0229923	-0.00384382	-0.578089	-0.221186	0.0312542	1.77496	1.74401	0.0442164	-0.00503466
0.266667	-0.0505568	-0.0412126	-0.19358	1.15995	0.945054	-0.305427	0.532079	0.168976	0.0504313	-0.859128	0.360689	0.0343465	0.000259486	0.287217	-0.00316117	-0.238256	-2.33373	-0.135778	0.0592267	0.000553047	-0.217221	0.0985019	0.0713901	-0.586298	-0.162084	-0.198145	1.37864	1.30185	0.0229923	-0.00384382	-0.592453	-0.218412	0.0196127	1.70511	1.73851	0.0442164	-0.00503466
